<svg xmlns="http://www.w3.org/2000/svg" width="139.573" height="159.536" viewBox="0 0 139.573 159.536">
  <g id="Group_1697" data-name="Group 1697" transform="translate(-1414.071 -724.156)">
    <path id="Path_3538" data-name="Path 3538" d="M1419.59,886.581c-7.944-10.138-7.987-27.106,4.322-33.823,5.757-3.142,12.6-3.639,19.141-3.217,18.4,1.185,35.664,8.972,52.142,17.234,17.276,8.661,34.558,18.246,47.6,32.5,4.372,4.779,8.288,10.175,10.128,16.386.734,2.477,1.109,5.213.108,7.595-2.054,4.888-8.507,5.865-13.8,5.565-21.671-1.229-41.642-11.479-62.412-17.782-3.717-1.128-7.673-2.137-11.445-1.209a6.073,6.073,0,0,0-4.207,2.965c-2.743,5.846,4.678,9.105,9,10.729,7.847,2.949,16.62,1.569,24.431,4.7,1.245.5,2.666,1.793,1.934,2.918-.486.748-1.568.728-2.453.621-24.141-1.655-34.251-9.113-36.034-16.2-.967-2.768-.511-6.176,1.691-8.112,2.076-1.824,5.105-1.974,7.866-1.852,19.66.87,38.431,10.695,58.071,9.464,3.237-.2,6.8-.9,8.757-3.482,2.984-3.928.567-9.608-2.459-13.5-6.885-8.865-16.5-15.182-26.252-20.733-15.832-9.008-32.628-16.48-50.274-21-5.817-1.49-11.835-2.663-17.8-1.977-3.545.408-7.6,2.087-8.264,5.594a8.354,8.354,0,0,0,1.406,5.548c4,6.957,11.03,11.639,15.76,18.122,1.416,1.941,2.665,4.249,2.324,6.628-.626,4.375-6.031,6.239-10.445,6.019a25.987,25.987,0,0,1-17.95-8.638Q1420.02,887.128,1419.59,886.581Z" transform="translate(0 -69.957)" fill="#5423ee"/>
    <ellipse id="Ellipse_810" data-name="Ellipse 810" cx="8.287" cy="12.777" rx="8.287" ry="12.777" transform="translate(1471.596 753.602)" fill="#5423ee"/>
    <ellipse id="Ellipse_811" data-name="Ellipse 811" cx="5.28" cy="8.14" rx="5.28" ry="8.14" transform="translate(1488.312 867.411)" fill="#5423ee"/>
    <ellipse id="Ellipse_812" data-name="Ellipse 812" cx="16.135" cy="24.877" rx="16.135" ry="24.877" transform="translate(1434.022 724.156)" fill="#5423ee"/>
  </g>
</svg>
