<?xml version="1.0" encoding="utf-8"?>
<!-- Generator: Adobe Illustrator 20.1.0, SVG Export Plug-In . SVG Version: 6.00 Build 0)  -->
<svg version="1.1" xmlns="http://www.w3.org/2000/svg" xmlns:xlink="http://www.w3.org/1999/xlink" x="0px" y="0px"
	 viewBox="0 0 20 20" style="enable-background:new 0 0 20 20;" xml:space="preserve">
<g id="Ebene_1">
	<path id="XMLID_22_" d="M12.1,12.7c-0.3,0.6-0.6,1.2-1.1,1.7c-0.4,0.4-1,0.9-1.7,0.9c-0.4,0-1-0.3-1-1.3c0-1,0.6-2.2,1-3
		c0.3-0.6,1-1.7,1-2.4c0-0.4-0.1-0.5-0.4-0.5C9.5,8.1,9,8.6,8.6,9.2c-0.3,0.5-0.6,1-0.9,1.4c-0.1,0.1-0.1,0.2-0.2,0.2
		c-0.1,0-0.2-0.1-0.2-0.2c0,0,0-0.1,0-0.2c0.1-0.3,0.3-0.6,0.5-1c0.6-1,1.2-1.8,2.2-1.8c0.6,0,1.1,0.5,1.1,1.3
		c0,0.9-0.4,1.8-0.7,2.6c-0.3,0.6-0.6,1.1-0.8,1.6c-0.1,0.3-0.5,0.9-0.5,1.2c0,0.2,0.1,0.4,0.3,0.4c0.3,0,0.5-0.1,0.7-0.3
		c0.4-0.3,0.8-0.9,1-1.3c0.2-0.3,0.3-0.5,0.5-0.7c0.1-0.1,0.1-0.1,0.2-0.1c0.1,0,0.2,0.1,0.2,0.2C12.1,12.6,12.1,12.6,12.1,12.7z
		 M11.3,6.5c-0.5,0-1-0.4-1-1s0.4-1,0.9-1c0.5,0,1,0.4,1,1S11.8,6.5,11.3,6.5z"/>
	<g>
		<path d="M10,1c-5,0-9,4-9,9c0,5,4,9,9,9c5,0,9-4,9-9C19,5,15,1,10,1z M10,18c-4.4,0-8-3.6-8-8s3.6-8,8-8s8,3.6,8,8S14.4,18,10,18z
			"/>
	</g>
</g>
<g id="Layer_2">
</g>
</svg>
