<svg xmlns="http://www.w3.org/2000/svg" width="26.115" height="34.136" viewBox="0 0 26.115 34.136">
  <g id="Group_1735" data-name="Group 1735" transform="translate(-403.72 -340.804)">
    <ellipse id="Ellipse_794" data-name="Ellipse 794" cx="2.308" cy="5.481" rx="2.308" ry="5.481" transform="matrix(0.922, -0.387, 0.387, 0.922, 403.72, 342.59)" fill="#00fe00"/>
    <path id="Path_3554" data-name="Path 3554" d="M450.443,350.622c-1.182.5-1.607,2.134-.975,3.641.645,1.537,2.1,2.352,3.281,1.856s1.62-2.1.975-3.641C453.092,350.971,451.625,350.126,450.443,350.622Z" transform="translate(-36.475 -4.234)" fill="#00fe00"/>
    <path id="Path_3555" data-name="Path 3555" d="M415.747,399.537a11.228,11.228,0,0,1-2.243.491,11.008,11.008,0,0,1-8.427-2.63,11.243,11.243,0,0,1-1.521-1.61q-.337-.436-.629-.9t-.535-.953a11.485,11.485,0,0,1-1.165-4.124,11.028,11.028,0,0,1,.017-2.125,10.677,10.677,0,0,1,.427-2.064,10.871,10.871,0,0,1,.813-1.927,11.179,11.179,0,0,1,4.291-4.384c.3-.17.6-.327.918-.468s.633-.269.957-.381a10.788,10.788,0,0,1,8.079.429,10.932,10.932,0,0,1,6.171,8.118q.089.533.125,1.074c.024.361.03.723.02,1.085a12.353,12.353,0,0,1-.251,2.17c-.073.359-.165.716-.271,1.069-.027.088-.055.176-.083.264s-.06.175-.09.263l-.1.261-.1.259a11.328,11.328,0,0,1-1.046,1.984,10.4,10.4,0,0,1-1.453,1.748,10.181,10.181,0,0,1-.869.748,10.243,10.243,0,0,1-3.039,1.6Zm-1.094-3.248a10.422,10.422,0,0,0,2.876-1.539,9.859,9.859,0,0,0,1.238-1.115,8.755,8.755,0,0,0,1.036-1.348l.111-.184.107-.187.1-.191c.032-.065.065-.129.1-.194a7.877,7.877,0,0,0,.738-2.507,8.97,8.97,0,0,0-.3-3.523,9.158,9.158,0,0,0-9.873-6.527,9.434,9.434,0,0,0-1.825.4c-.3.1-.589.21-.874.337a9.185,9.185,0,0,0-.834.425,8.839,8.839,0,0,0-1.512,1.1,8.952,8.952,0,0,0-2.171,2.993,9.3,9.3,0,0,0-.806,3.557,8.728,8.728,0,0,0,.637,3.525,8.632,8.632,0,0,0,1.946,2.911,8.885,8.885,0,0,0,2.845,1.874,9.163,9.163,0,0,0,3.244.689,9.062,9.062,0,0,0,3.22-.5Z" transform="translate(6.785 -25.156)" fill="#00fe00"/>
  </g>
</svg>
