<svg xmlns="http://www.w3.org/2000/svg" width="35.438" height="48.031" viewBox="0 0 35.438 48.031">
  <g id="Group_1729" data-name="Group 1729" transform="translate(-401.183 -327.804)">
    <ellipse id="Ellipse_794" data-name="Ellipse 794" cx="2.308" cy="5.481" rx="2.308" ry="5.481" transform="matrix(0.922, -0.387, 0.387, 0.922, 403.72, 329.59)" fill="#00fe00"/>
    <path id="Path_3554" data-name="Path 3554" d="M450.443,350.622c-1.182.5-1.607,2.134-.975,3.641.645,1.537,2.1,2.352,3.281,1.856s1.62-2.1.975-3.641C453.092,350.971,451.625,350.126,450.443,350.622Z" transform="translate(-36.475 -17.234)" fill="#00fe00"/>
    <path id="Path_3555" data-name="Path 3555" d="M424.785,412.982a18.191,18.191,0,0,1-3.636.8,17.839,17.839,0,0,1-13.657-4.263,18.216,18.216,0,0,1-2.465-2.609q-.547-.707-1.019-1.462t-.868-1.544a18.613,18.613,0,0,1-1.888-6.683,17.875,17.875,0,0,1,.027-3.443,17.3,17.3,0,0,1,.692-3.345,17.614,17.614,0,0,1,1.318-3.123,18.117,18.117,0,0,1,6.954-7.1c.484-.275.98-.53,1.488-.758s1.025-.436,1.552-.617a17.483,17.483,0,0,1,13.093.7,17.716,17.716,0,0,1,10,13.156q.144.863.2,1.741c.039.584.048,1.171.033,1.759a20.024,20.024,0,0,1-.407,3.517c-.119.582-.267,1.16-.438,1.733-.043.143-.09.285-.135.428s-.1.283-.145.426l-.155.423-.165.42a18.357,18.357,0,0,1-1.7,3.215,16.853,16.853,0,0,1-2.355,2.832,16.5,16.5,0,0,1-1.408,1.213,16.6,16.6,0,0,1-4.926,2.6Zm-1.772-5.263a16.89,16.89,0,0,0,4.661-2.493,15.977,15.977,0,0,0,2.006-1.807,14.184,14.184,0,0,0,1.679-2.185l.18-.3.173-.3.165-.309c.052-.1.106-.209.157-.314a12.769,12.769,0,0,0,1.2-4.062,14.537,14.537,0,0,0-.489-5.709,14.842,14.842,0,0,0-16-10.578,15.285,15.285,0,0,0-2.957.653c-.481.159-.954.341-1.416.547a14.874,14.874,0,0,0-1.352.689,14.324,14.324,0,0,0-2.45,1.78,14.508,14.508,0,0,0-3.519,4.85,15.077,15.077,0,0,0-1.306,5.765,14.145,14.145,0,0,0,1.032,5.713,13.99,13.99,0,0,0,3.154,4.718,14.4,14.4,0,0,0,4.611,3.037,14.85,14.85,0,0,0,5.257,1.116,14.686,14.686,0,0,0,5.218-.807Z" transform="translate(0 -38.052)" fill="#00fe00"/>
  </g>
</svg>
