<svg xmlns="http://www.w3.org/2000/svg" width="13.827" height="17.758" viewBox="0 0 13.827 17.758">
  <g id="Group_1736" data-name="Group 1736" transform="translate(-409.72 -348.804)">
    <ellipse id="Ellipse_794" data-name="Ellipse 794" cx="2.308" cy="5.481" rx="2.308" ry="5.481" transform="matrix(0.922, -0.387, 0.387, 0.922, 409.72, 350.59)" fill="#00fe00"/>
    <path id="Path_3554" data-name="Path 3554" d="M450.443,350.622c-1.182.5-1.607,2.134-.975,3.641.645,1.537,2.1,2.352,3.281,1.856s1.62-2.1.975-3.641C453.092,350.971,451.625,350.126,450.443,350.622Z" transform="translate(-30.475 3.766)" fill="#00fe00"/>
    <path id="Path_3555" data-name="Path 3555" d="M404.438,382.715a2.508,2.508,0,0,1-.5.11,2.46,2.46,0,0,1-1.884-.588,2.512,2.512,0,0,1-.34-.36q-.075-.1-.141-.2t-.12-.213a2.567,2.567,0,0,1-.26-.922,2.463,2.463,0,0,1,0-.475,2.384,2.384,0,0,1,.1-.461,2.428,2.428,0,0,1,.182-.431,2.5,2.5,0,0,1,.959-.98c.067-.038.135-.073.205-.1s.141-.06.214-.085a2.411,2.411,0,0,1,1.806.1,2.443,2.443,0,0,1,1.379,1.814q.02.119.028.24t0,.243a2.761,2.761,0,0,1-.056.485c-.016.08-.037.16-.06.239l-.019.059-.02.059-.021.058-.023.058a2.532,2.532,0,0,1-.234.443,2.326,2.326,0,0,1-.325.391,2.278,2.278,0,0,1-.194.167,2.291,2.291,0,0,1-.679.358Zm-.244-.726a2.331,2.331,0,0,0,.643-.344,2.205,2.205,0,0,0,.277-.249,1.955,1.955,0,0,0,.232-.3l.025-.041.024-.042.023-.043.022-.043a1.783,1.783,0,0,0,.075-.179,1.764,1.764,0,0,0,.09-.381,2.005,2.005,0,0,0-.068-.787,2.047,2.047,0,0,0-2.207-1.459,2.108,2.108,0,0,0-.408.09c-.066.022-.132.047-.2.075a2.051,2.051,0,0,0-.187.095,1.975,1.975,0,0,0-.338.245,2,2,0,0,0-.485.669,2.08,2.08,0,0,0-.18.8,1.952,1.952,0,0,0,.142.788,1.93,1.93,0,0,0,.435.651,1.985,1.985,0,0,0,.636.419,2.048,2.048,0,0,0,.725.154,2.027,2.027,0,0,0,.72-.111Z" transform="translate(15.275 -16.528)" fill="#00fe00" stroke="#00fe00" stroke-width="0.5"/>
  </g>
</svg>
